<svg width="337.667" height="203.693" viewBox="0 0 253.25 152.77" class="displayed_equation" xmlns="http://www.w3.org/2000/svg">
  <path d="M336.015625 1247.895312L337.929688 1247.895312M336.015625 1247.895312L1224.648438 1247.895312M1383.398438 1247.895312L2272.148438 1247.895312M2270.195313 1247.895312L2272.148438 1247.895312M1383.476563 1247.895312L1224.726563 1347.114062 1224.726563 1148.676562 1383.476563 1247.895312M1383.476563 1148.676562L1383.476563 1347.114062M2272.1875 1247.895312L2272.148438 1245.942187M2272.148438 1247.895312L2272.03125 922.621875M2272.03125 605.160937L2272.148438 279.848437M2272.148438 281.7625L2272.148438 279.848437 336.015625 279.809375" transform="matrix(.1 0 0 -.1 0 152.77)" fill="none" stroke-width="7.97" stroke-linejoin="round" stroke="#000" stroke-miterlimit="10" />
  <path d="M 2272.1875 926.567187 L 2331.71875 895.785937 L 2212.65625 842.23125 L 2331.71875 788.6375 L 2212.65625 735.082812 L 2331.71875 681.489062 L 2212.65625 627.895312 L 2272.1875 601.1375" transform="matrix(.1 0 0 -.1 0 152.77)" fill="none" stroke-width="7.97" stroke-linejoin="bevel" stroke="#000" stroke-miterlimit="10" />
  <path d="M336.015625 1247.895312L336.015625 1245.942187M336.015625 1247.895312L336.015625 823.403125M336.015625 704.379687L336.015625 279.848437M336.015625 281.7625L336.015625 279.848437M336.015625 744.223437L336.015625 704.340625M336.015625 783.48125L336.015625 823.364062M455.078125 783.48125L216.953125 783.48125" transform="matrix(.1 0 0 -.1 0 152.77)" fill="none" stroke-width="7.97" stroke-linejoin="round" stroke="#000" stroke-miterlimit="10" />
  <path d="M 395.507813 744.223437 L 276.484375 744.223437" transform="matrix(.1 0 0 -.1 0 152.77)" fill="none" stroke-width="23.91" stroke-linejoin="round" stroke="#000" stroke-miterlimit="10" />
  <path d="M 197.695313 1109.614062 L 197.695313 1366.254687 C 197.695313 1377.270312 206.601563 1386.215625 217.617188 1386.215625 L 437.1875 1386.215625" transform="matrix(.1 0 0 -.1 0 152.77)" fill="none" stroke-width="7.97" stroke-linejoin="round" stroke="#e14b3b" stroke-miterlimit="10" />
  <path d="M 46.863281 14.148438 L 42.335938 12.445313 L 43.820313 14.148438 L 42.335938 15.855469" fill="#e14b3b" />
  <path d="M 468.632813 1386.215625 L 423.359375 1403.246875 L 438.203125 1386.215625 L 423.359375 1369.145312 Z M 468.632813 1386.215625" transform="matrix(.1 0 0 -.1 0 152.77)" fill="none" stroke-width="7.97" stroke="#e14b3b" stroke-miterlimit="10" />
  <path d="M 2410.507813 418.090625 L 2410.507813 161.410937 C 2410.507813 150.434375 2401.5625 141.489062 2390.585938 141.489062 L 2170.976563 141.489062" transform="matrix(.1 0 0 -.1 0 152.77)" fill="none" stroke-width="7.97" stroke-linejoin="round" stroke="#e14b3b" stroke-miterlimit="10" />
  <path d="M 213.957031 138.621094 L 218.484375 140.324219 L 217 138.621094 L 218.484375 136.914063" fill="#e14b3b" />
  <path d="M 2139.570313 141.489062 L 2184.84375 124.457812 L 2170 141.489062 L 2184.84375 158.559375 Z M 2139.570313 141.489062" transform="matrix(.1 0 0 -.1 0 152.77)" fill="none" stroke-width="7.97" stroke="#e14b3b" stroke-miterlimit="10" />
  <path d="M23.039063 64.359375L23.039063 63.601563 20.117188 63.601563 20.117188 60.644531 19.3125 60.644531 19.3125 63.601563 16.390625 63.601563 16.390625 64.359375 19.3125 64.359375 19.3125 67.316406 20.117188 67.316406 20.117188 64.359375 23.039063 64.359375M16.390625 85.160156L23.039063 85.160156 23.039063 84.402344 16.390625 84.402344zM16.390625 85.160156" />
</svg>